# xmcd
#
# Track frame offsets:
#	150
#	21525
#	38175
#	54750
#	72375
#	88350
#	104175
#	120975
#	138525
#	153600
#	169275
#	190650
#	207300
#	223875
#	241500
#	257475
#	273300
#	290100
#	307650
#	322725
#
# Disc length: 4515 seconds
#
# Revision: 1
# Processed by: cddbd v1.5.1PL2 Copyright (c) Steve Scherf et al.
# Submitted via: audiograbber 1.83.01
#
DISCID=2a11a114
DTITLE=Country Hits Today - Cht9905
DYEAR=1900
DGENRE=Karaoke
TTITLE0=Garth Brooks - Ireland 99
TTITLE1=Alan Jackson - Gone Crazy
TTITLE2=Terri Clark - Everytime I Cry
TTITLE3=Collin Raye - Anyone Else
TTITLE4=Lila Mccann - With You
TTITLE5=Clint Black - You Don't Need Me Now
TTITLE6=Susan Ashton - Faith Of The Heart
TTITLE7=Chad Brock - Ordinary Life
TTITLE8=Aaron Tippin - I'm Leaving
TTITLE9=Andy Griggs - You Won't Ever Be Lonely
TTITLE10=Garth Brooks - Ireland 99 (Vocal)
TTITLE11=Alan Jackson - Gone Crazy (Vocal)
TTITLE12=Terri Clark - Everytime I Cry (Vocal)
TTITLE13=Collin Raye - Anyone Else (Vocal)
TTITLE14=Lila Mccann - With You (Vocal)
TTITLE15=Clint Black - You Don't Need Me Now (Vocal)
TTITLE16=Susan Ashton - Faith Of The Heart (Vocal)
TTITLE17=Chad Brock - Ordinary Life (Vocal)
TTITLE18=Aaron Tippin - I'm Leaving (Vocal)
TTITLE19=Andy Griggs - You Won't Ever Be Lonely (Vocal)
EXTD=
EXTT0=
EXTT1=
EXTT2=
EXTT3=
EXTT4=
EXTT5=
EXTT6=
EXTT7=
EXTT8=
EXTT9=
EXTT10=
EXTT11=
EXTT12=
EXTT13=
EXTT14=
EXTT15=
EXTT16=
EXTT17=
EXTT18=
EXTT19=
PLAYORDER=
